<svg width="161" height="171" viewBox="0 0 161 171" fill="none" xmlns="http://www.w3.org/2000/svg">
<mask id="mask0_11_15" style="mask-type:alpha" maskUnits="userSpaceOnUse" x="7" y="24" width="147" height="147">
<path d="M80.5 170.223C120.906 170.223 153.661 137.58 153.661 97.3119C153.661 57.0441 120.906 24.4005 80.5 24.4005C40.0941 24.4005 7.33868 57.0441 7.33868 97.3119C7.33868 137.58 40.0941 170.223 80.5 170.223Z" fill="white"/>
</mask>
<g mask="url(#mask0_11_15)">
<path d="M80.5 170.223C120.906 170.223 153.661 137.58 153.661 97.3119C153.661 57.0441 120.906 24.4005 80.5 24.4005C40.0941 24.4005 7.33868 57.0441 7.33868 97.3119C7.33868 137.58 40.0941 170.223 80.5 170.223Z" fill="#4452FB"/>
<path d="M153.963 24.4005H7.33868V170.223H153.963V24.4005Z" fill="#4452FB"/>
</g>
<mask id="mask1_11_15" style="mask-type:alpha" maskUnits="userSpaceOnUse" x="0" y="0" width="161" height="171">
<path d="M0.022583 97.3119V0.0967407H160.977V97.3119H153.661C153.661 137.58 120.906 170.223 80.5 170.223C40.0941 170.223 7.33871 137.58 7.33871 97.3119H0.022583Z" fill="white"/>
</mask>
<g mask="url(#mask1_11_15)">
<mask id="mask2_11_15" style="mask-type:alpha" maskUnits="userSpaceOnUse" x="19" y="21" width="123" height="150">
<path d="M80.5 21.9702C99.3561 21.9702 114.642 37.2038 114.642 55.9955L114.643 59.742C118.102 60.3207 120.739 63.3196 120.739 66.9322V75.4385C120.739 79.1159 118.007 82.1575 114.455 82.6576C113.196 94.6912 105.642 104.859 95.1329 109.835L95.1323 121.008H97.571C121.815 121.008 141.468 140.594 141.468 164.755V170.223H19.5323V164.755C19.5323 140.594 39.1855 121.008 63.4291 121.008H65.8678L65.8679 109.835C55.3586 104.86 47.8044 94.6915 46.5441 82.6576C42.9932 82.1575 40.2613 79.1159 40.2613 75.4385V66.9322C40.2613 63.3194 42.8979 60.3204 46.3581 59.7418L46.3581 55.9955C46.3581 37.2038 61.644 21.9702 80.5 21.9702Z" fill="white"/>
</mask>
<g mask="url(#mask2_11_15)">
<path d="M80.5 21.9702C99.3561 21.9702 114.642 37.2038 114.642 55.9955L114.643 59.742C118.102 60.3207 120.739 63.3196 120.739 66.9322V75.4385C120.739 79.1159 118.007 82.1575 114.455 82.6576C113.196 94.6912 105.642 104.859 95.1329 109.835L95.1323 121.008H97.571C121.815 121.008 141.468 140.594 141.468 164.755V170.223H19.5323V164.755C19.5323 140.594 39.1855 121.008 63.4291 121.008H65.8678L65.8679 109.835C55.3586 104.86 47.8044 94.6915 46.5441 82.6576C42.9932 82.1575 40.2613 79.1159 40.2613 75.4385V66.9322C40.2613 63.3194 42.8979 60.3204 46.3581 59.7418L46.3581 55.9955C46.3581 37.2038 61.644 21.9702 80.5 21.9702Z" fill="#D0C6AC"/>
<path d="M161.508 21.9702H0.022583V170.733H161.508V21.9702Z" fill="#FFDBB4"/>
<path fill-rule="evenodd" clip-rule="evenodd" d="M46.3581 79.0841C46.3581 97.8757 61.644 113.109 80.5 113.109C99.3561 113.109 114.642 97.8757 114.642 79.0841V83.9448C114.642 102.737 99.3561 117.97 80.5 117.97C61.644 117.97 46.3581 102.737 46.3581 83.9448V79.0841Z" fill="black" fill-opacity="0.1"/>
</g>
<mask id="mask3_11_15" style="mask-type:alpha" maskUnits="userSpaceOnUse" x="19" y="111" width="123" height="60">
<path d="M95.1332 111.33C106.168 112.56 114.642 115.943 114.642 124.7L114.638 124.437C130.404 131.074 141.468 146.627 141.468 164.755V170.223H19.5323V164.755C19.5323 146.627 30.5964 131.074 46.362 124.437C46.5292 115.875 54.9433 112.548 65.8675 111.33L65.8678 122.831C65.8678 130.884 72.4189 137.413 80.5 137.413C88.5812 137.413 95.1323 130.884 95.1323 122.831L95.1332 111.33Z" fill="white"/>
</mask>
<g mask="url(#mask3_11_15)">
<path d="M95.1332 111.33C106.168 112.56 114.642 115.943 114.642 124.7L114.638 124.437C130.404 131.074 141.468 146.627 141.468 164.755V170.223H19.5323V164.755C19.5323 146.627 30.5964 131.074 46.362 124.437C46.5292 115.875 54.9433 112.548 65.8675 111.33L65.8678 122.831C65.8678 130.884 72.4189 137.413 80.5 137.413C88.5812 137.413 95.1323 130.884 95.1323 122.831L95.1332 111.33Z" fill="#B7C1DB"/>
<path d="M161.581 103.388H0.022583V170.223H161.581V103.388Z" fill="#293347"/>
<path fill-rule="evenodd" clip-rule="evenodd" d="M62.2096 140.9L62.2097 170.223H57.942L57.9413 138.719C59.285 139.515 60.7137 140.245 62.2096 140.9ZM103.059 138.719L103.058 163.236C103.058 164.41 102.103 165.363 100.924 165.363C99.7457 165.363 98.7904 164.41 98.7904 163.236L98.7912 140.9C100.287 140.245 101.715 139.515 103.059 138.719Z" fill="#F4F4F4"/>
<path fill-rule="evenodd" clip-rule="evenodd" d="M105.519 111.119C114.696 112.848 121.044 116.295 121.044 123.018C121.044 134.995 100.901 144.704 80.5 144.704C60.0988 144.704 39.9565 134.995 39.9565 123.018C39.9565 116.295 46.3036 112.848 55.4807 111.119C49.9411 113.154 46.3581 116.576 46.3581 122.27C46.3581 134.66 63.3201 144.704 80.5 144.704C97.68 144.704 114.642 134.66 114.642 122.27C114.642 116.695 111.207 113.298 105.863 111.248L105.519 111.119Z" fill="black" fill-opacity="0.16"/>
</g>
<mask id="mask4_11_15" style="mask-type:alpha" maskUnits="userSpaceOnUse" x="68" y="89" width="25" height="12">
<path d="M68.988 90.7062C69.633 96.4733 74.541 100.958 80.5 100.958C86.4774 100.958 91.3974 96.4456 92.0179 90.6527C92.0678 90.1865 91.5454 89.4132 90.8906 89.4132C81.8101 89.4132 74.8531 89.4132 70.1884 89.4132C69.5299 89.4132 68.9235 90.1292 68.988 90.7062Z" fill="white"/>
</mask>
<g mask="url(#mask4_11_15)">
<path d="M68.988 90.7062C69.633 96.4733 74.541 100.958 80.5 100.958C86.4774 100.958 91.3974 96.4456 92.0179 90.6527C92.0678 90.1865 91.5454 89.4132 90.8906 89.4132C81.8101 89.4132 74.8531 89.4132 70.1884 89.4132C69.5299 89.4132 68.9235 90.1292 68.988 90.7062Z" fill="black" fill-opacity="0.7"/>
<path fill-rule="evenodd" clip-rule="evenodd" d="M74.4032 82.7297H87.2065C88.89 82.7297 90.2549 84.0898 90.2549 85.7676V89.4132C90.2549 91.091 88.89 92.4512 87.2065 92.4512H74.4032C72.7197 92.4512 71.3549 91.091 71.3549 89.4132V85.7676C71.3549 84.0898 72.7197 82.7297 74.4032 82.7297Z" fill="white"/>
<path d="M77.4516 109.464C81.1555 109.464 84.1581 106.472 84.1581 102.78C84.1581 99.0891 81.1555 96.0967 77.4516 96.0967C73.7478 96.0967 70.7452 99.0891 70.7452 102.78C70.7452 106.472 73.7478 109.464 77.4516 109.464Z" fill="#FF4F6D"/>
<path d="M83.5484 109.464C87.2523 109.464 90.2548 106.472 90.2548 102.78C90.2548 99.0891 87.2523 96.0967 83.5484 96.0967C79.8445 96.0967 76.8419 99.0891 76.8419 102.78C76.8419 106.472 79.8445 109.464 83.5484 109.464Z" fill="#FF4F6D"/>
</g>
<path fill-rule="evenodd" clip-rule="evenodd" d="M73.1839 79.0841C73.1839 81.7686 76.4594 83.9448 80.5 83.9448C84.5406 83.9448 87.8161 81.7686 87.8161 79.0841" fill="black" fill-opacity="0.16"/>
<path fill-rule="evenodd" clip-rule="evenodd" d="M56.2106 68.4192C57.3363 66.111 59.8712 64.5018 62.8179 64.5018C65.7542 64.5018 68.2815 66.0997 69.4132 68.3947C69.7494 69.0765 69.271 69.6344 68.7885 69.221C67.2941 67.9407 65.1719 67.1411 62.8179 67.1411C60.5375 67.1411 58.4747 67.8914 56.9894 69.1023C56.4463 69.545 55.8813 69.0942 56.2106 68.4192Z" fill="black" fill-opacity="0.6"/>
<path fill-rule="evenodd" clip-rule="evenodd" d="M91.5719 68.4192C92.6976 66.111 95.2325 64.5018 98.1792 64.5018C101.115 64.5018 103.643 66.0997 104.775 68.3947C105.111 69.0765 104.632 69.6344 104.15 69.221C102.655 67.9407 100.533 67.1411 98.1792 67.1411C95.8988 67.1411 93.836 67.8914 92.3506 69.1023C91.8076 69.545 91.2426 69.0942 91.5719 68.4192Z" fill="black" fill-opacity="0.6"/>
<path fill-rule="evenodd" clip-rule="evenodd" d="M62.5434 53.6553C59.003 53.8182 53.2793 56.3821 53.4268 59.9401C53.4316 60.0566 53.6033 60.1077 53.6871 60.0181C55.3667 58.22 67.2923 56.4031 71.4927 57.366C71.8771 57.4542 72.1692 57.0763 71.9257 56.8032C69.8393 54.4651 65.7152 53.5062 62.5434 53.6553Z" fill="black" fill-opacity="0.6"/>
<path fill-rule="evenodd" clip-rule="evenodd" d="M99.0663 53.6553C102.607 53.8182 108.33 56.3821 108.183 59.9401C108.178 60.0566 108.006 60.1077 107.923 60.0181C106.243 58.22 94.3174 56.4031 90.117 57.366C89.7326 57.4542 89.4405 57.0763 89.684 56.8032C91.7704 54.4651 95.8945 53.5062 99.0663 53.6553Z" fill="black" fill-opacity="0.6"/>
<mask id="mask5_11_15" style="mask-type:alpha" maskUnits="userSpaceOnUse" x="0" y="0" width="161" height="171">
<path d="M160.977 0.0967407H0.022583V170.223H160.977V0.0967407Z" fill="white"/>
</mask>
<g mask="url(#mask5_11_15)">
<mask id="mask6_11_15" style="mask-type:alpha" maskUnits="userSpaceOnUse" x="44" y="10" width="72" height="51">
<path d="M109.179 24.3522C107.496 22.6388 105.542 21.1844 103.642 19.726C103.223 19.4046 102.797 19.0908 102.387 18.7571C102.294 18.6813 101.339 18 101.225 17.7492C100.95 17.146 101.11 17.6157 101.147 16.8959C101.195 15.9857 103.058 13.4148 101.668 12.8253C101.057 12.5659 99.9661 13.256 99.3796 13.4839C98.2326 13.93 97.0714 14.3104 95.8856 14.6384C96.4537 13.5102 97.537 11.2519 95.501 11.8563C93.9149 12.3272 92.4368 13.5379 90.843 14.1075C91.3703 13.246 93.4793 10.5765 91.5736 10.4273C90.9806 10.3808 89.255 11.4894 88.6166 11.7258C86.7042 12.4343 84.7508 12.8921 82.7429 13.2527C75.9158 14.4789 67.9322 14.1293 61.6157 17.2269C56.746 19.6149 51.9375 23.3202 49.1244 28.0385C46.413 32.5864 45.3989 37.5636 44.8314 42.775C44.4149 46.5996 44.3811 50.553 44.5758 54.3914C44.6395 55.649 44.7814 61.4461 46.6147 59.6905C47.528 58.8157 47.5213 55.2835 47.7513 54.0879C48.2091 51.7091 48.6498 49.3196 49.4131 47.0169C50.7582 42.9589 52.3449 41.0667 55.6958 38.2718C57.8462 36.4784 59.3562 34.0546 61.414 32.2453C62.3384 31.4328 61.633 31.5174 63.1192 31.624C64.1176 31.6955 65.1205 31.7228 66.121 31.7489C68.4353 31.8089 70.7533 31.7936 73.0682 31.8017C77.7303 31.8185 82.3706 31.8841 87.0282 31.6409C89.098 31.5328 91.1735 31.4743 93.2379 31.2835C94.391 31.1769 96.4372 30.4404 97.3865 31.0032C98.2552 31.5182 99.1573 33.1996 99.7812 33.8882C101.255 35.5156 103.012 36.7585 104.735 38.093C108.329 40.8754 110.143 41.9398 111.235 46.2881C112.322 50.6203 112.017 54.6394 113.363 58.9027C113.6 59.6523 114.226 60.9443 114.998 59.7862C115.141 59.5711 115.104 58.3888 115.104 57.7085C115.104 54.9623 115.802 52.9018 115.793 50.1377C115.759 41.7335 115.487 30.7747 109.179 24.3522Z" fill="white"/>
</mask>
<g mask="url(#mask6_11_15)">
<path d="M109.179 24.3522C107.496 22.6388 105.542 21.1844 103.642 19.726C103.223 19.4046 102.797 19.0908 102.387 18.7571C102.294 18.6813 101.339 18 101.225 17.7492C100.95 17.146 101.11 17.6157 101.147 16.8959C101.195 15.9857 103.058 13.4148 101.668 12.8253C101.057 12.5659 99.9661 13.256 99.3796 13.4839C98.2326 13.93 97.0714 14.3104 95.8856 14.6384C96.4537 13.5102 97.537 11.2519 95.501 11.8563C93.9149 12.3272 92.4368 13.5379 90.843 14.1075C91.3703 13.246 93.4793 10.5765 91.5736 10.4273C90.9806 10.3808 89.255 11.4894 88.6166 11.7258C86.7042 12.4343 84.7508 12.8921 82.7429 13.2527C75.9158 14.4789 67.9322 14.1293 61.6157 17.2269C56.746 19.6149 51.9375 23.3202 49.1244 28.0385C46.413 32.5864 45.3989 37.5636 44.8314 42.775C44.4149 46.5996 44.3811 50.553 44.5758 54.3914C44.6395 55.649 44.7814 61.4461 46.6147 59.6905C47.528 58.8157 47.5213 55.2835 47.7513 54.0879C48.2091 51.7091 48.6498 49.3196 49.4131 47.0169C50.7582 42.9589 52.3449 41.0667 55.6958 38.2718C57.8462 36.4784 59.3562 34.0546 61.414 32.2453C62.3384 31.4328 61.633 31.5174 63.1192 31.624C64.1176 31.6955 65.1205 31.7228 66.121 31.7489C68.4353 31.8089 70.7533 31.7936 73.0682 31.8017C77.7303 31.8185 82.3706 31.8841 87.0282 31.6409C89.098 31.5328 91.1735 31.4743 93.2379 31.2835C94.391 31.1769 96.4372 30.4404 97.3865 31.0032C98.2552 31.5182 99.1573 33.1996 99.7812 33.8882C101.255 35.5156 103.012 36.7585 104.735 38.093C108.329 40.8754 110.143 41.9398 111.235 46.2881C112.322 50.6203 112.017 54.6394 113.363 58.9027C113.6 59.6523 114.226 60.9443 114.998 59.7862C115.141 59.5711 115.104 58.3888 115.104 57.7085C115.104 54.9623 115.802 52.9018 115.793 50.1377C115.759 41.7335 115.487 30.7747 109.179 24.3522Z" fill="#1F3140"/>
<path d="M161.931 0.0967407H-0.045166V170.498H161.931V0.0967407Z" fill="#4A312C"/>
</g>
</g>
</g>
</svg>
