<svg width="375" height="164" viewBox="0 0 375 164" fill="none" xmlns="http://www.w3.org/2000/svg">
<path fill-rule="evenodd" clip-rule="evenodd" d="M72.4353 25.6841C72.4353 23.2097 74.3226 21.2084 76.6612 21.2084H223.641C225.975 21.2084 227.867 23.211 227.867 25.6841V132.327C227.867 134.801 225.98 136.802 223.641 136.802H76.6612C74.327 136.802 72.4353 134.8 72.4353 132.327V25.6841Z" fill="white" stroke="#4452FB" stroke-width="2.08143"/>
<path fill-rule="evenodd" clip-rule="evenodd" d="M81.9424 33.0406C81.9424 31.9811 82.756 31.121 83.7545 31.121H216.397C217.399 31.121 218.209 31.9762 218.209 33.0406V112.499C218.209 113.559 217.395 114.419 216.397 114.419H83.7545C82.7524 114.419 81.9424 113.564 81.9424 112.499V33.0406Z" fill="white" stroke="#4452FB" stroke-width="2.08143"/>
<path fill-rule="evenodd" clip-rule="evenodd" d="M139.083 136.802H161.371L162.875 157.427H137.578L139.083 136.802Z" fill="white" stroke="#4452FB" stroke-width="2.08143"/>
<path fill-rule="evenodd" clip-rule="evenodd" d="M128.27 161.905V159.745C128.27 158.467 129.249 157.427 130.455 157.427H169.999C171.202 157.427 172.184 158.467 172.184 159.745V161.905C172.184 161.995 172.118 162.063 172.032 162.063H128.421C128.337 162.063 128.27 161.992 128.27 161.905Z" fill="white" stroke="#4452FB" stroke-width="2.08143"/>
<path d="M150.227 129.448C151.768 129.448 153.018 128.123 153.018 126.49C153.018 124.856 151.768 123.532 150.227 123.532C148.685 123.532 147.435 124.856 147.435 126.49C147.435 128.123 148.685 129.448 150.227 129.448Z" stroke="#4452FB" stroke-width="2.08143"/>
<path d="M84.3584 100.03H61.7187C59.7198 100.03 58.0993 101.748 58.0993 103.867V158.226C58.0993 160.346 59.7198 162.063 61.7187 162.063H84.3584C86.3573 162.063 87.9778 160.346 87.9778 158.226V103.867C87.9778 101.748 86.3573 100.03 84.3584 100.03Z" fill="white" stroke="#4452FB" stroke-width="2.08143"/>
<path fill-rule="evenodd" clip-rule="evenodd" d="M58.0993 106.905H87.9778V152.838H58.0993V106.905Z" fill="white" stroke="#4452FB" stroke-width="2.08143"/>
<path d="M79.6788 102.748H66.5492C66.2161 102.748 65.946 103.034 65.946 103.387C65.946 103.74 66.2161 104.027 66.5492 104.027H79.6788C80.0119 104.027 80.282 103.74 80.282 103.387C80.282 103.034 80.0119 102.748 79.6788 102.748Z" fill="#2900CD" fill-opacity="0.67"/>
<path d="M73.1 155.508H73.0978C72.1483 155.508 71.3786 156.324 71.3786 157.331C71.3786 158.338 72.1483 159.154 73.0978 159.154H73.1C74.0495 159.154 74.8192 158.338 74.8192 157.331C74.8192 156.324 74.0495 155.508 73.1 155.508Z" fill="#2900CD" fill-opacity="0.67"/>
<path d="M66.5496 132.166C67.7997 132.166 68.8132 131.092 68.8132 129.768C68.8132 128.443 67.7997 127.369 66.5496 127.369C65.2994 127.369 64.286 128.443 64.286 129.768C64.286 131.092 65.2994 132.166 66.5496 132.166Z" fill="white" stroke="#4452FB" stroke-width="2.08143"/>
<path d="M81.7914 125.611H72.4345C72.1014 125.611 71.8313 125.897 71.8313 126.25C71.8313 126.603 72.1014 126.89 72.4345 126.89H81.7914C82.1246 126.89 82.3947 126.603 82.3947 126.25C82.3947 125.897 82.1246 125.611 81.7914 125.611Z" fill="#2900CD" fill-opacity="0.67"/>
<path d="M78.7733 129.128H72.4345C72.1014 129.128 71.8313 129.414 71.8313 129.768C71.8313 130.121 72.1014 130.407 72.4345 130.407H78.7733C79.1065 130.407 79.3766 130.121 79.3766 129.768C79.3766 129.414 79.1065 129.128 78.7733 129.128Z" fill="#2900CD" fill-opacity="0.67"/>
<path d="M75.7552 132.645H72.4345C72.1014 132.645 71.8313 132.932 71.8313 133.285C71.8313 133.638 72.1014 133.924 72.4345 133.924H75.7552C76.0884 133.924 76.3585 133.638 76.3585 133.285C76.3585 132.932 76.0884 132.645 75.7552 132.645Z" fill="#2900CD" fill-opacity="0.67"/>
<path d="M42.782 130.087C55.5753 130.087 65.9464 119.1 65.9464 105.546C65.9464 91.9915 55.5753 81.0038 42.782 81.0038C29.9887 81.0038 19.6177 91.9915 19.6177 105.546C19.6177 119.1 29.9887 130.087 42.782 130.087Z" fill="white" stroke="#4452FB" stroke-width="2.08143"/>
<path d="M292.759 75.8877H188.328C186.329 75.8877 184.709 77.6056 184.709 79.7248V151.511C184.709 153.631 186.329 155.348 188.328 155.348H292.759C294.757 155.348 296.378 153.631 296.378 151.511V79.7248C296.378 77.6056 294.757 75.8877 292.759 75.8877Z" fill="white" stroke="#4452FB" stroke-width="2.08143"/>
<path fill-rule="evenodd" clip-rule="evenodd" d="M177.012 155.505V158.706C177.012 160.557 178.431 162.063 180.178 162.063H300.909C302.654 162.063 304.075 160.558 304.075 158.706V155.505C304.075 155.418 304.009 155.348 303.925 155.348H177.162C177.077 155.348 177.012 155.418 177.012 155.505Z" fill="white" stroke="#4452FB" stroke-width="2.08143"/>
<path fill-rule="evenodd" clip-rule="evenodd" d="M248.888 155.42L231.987 155.42C232.661 157.309 234.382 158.618 236.356 158.618H244.519C246.494 158.618 248.214 157.309 248.888 155.42Z" fill="white" stroke="#4452FB" stroke-width="2.08143"/>
<path d="M290.103 83.4021H190.894C190.228 83.4021 189.688 83.9748 189.688 84.6812V146.691C189.688 147.397 190.228 147.97 190.894 147.97H290.103C290.769 147.97 291.309 147.397 291.309 146.691V84.6812C291.309 83.9748 290.769 83.4021 290.103 83.4021Z" fill="white" stroke="#4452FB" stroke-width="2.08143"/>
<path d="M146.831 33.3594C147.248 33.3594 147.586 33.0015 147.586 32.56C147.586 32.1184 147.248 31.7605 146.831 31.7605C146.414 31.7605 146.077 32.1184 146.077 32.56C146.077 33.0015 146.414 33.3594 146.831 33.3594Z" fill="#293347"/>
<path fill-rule="evenodd" clip-rule="evenodd" d="M103.673 9.21736H173.39V80.0448C173.39 82.5159 171.495 84.5212 169.164 84.5212H107.899C105.566 84.5212 103.673 82.5152 103.673 80.0448V9.21736Z" fill="white" stroke="#4452FB" stroke-width="2.08143"/>
<path fill-rule="evenodd" clip-rule="evenodd" d="M103.673 5.69597C103.673 3.22682 105.568 1.22333 107.899 1.22333H169.164C171.498 1.22333 173.39 3.22467 173.39 5.69597V10.4964H103.673V5.69597Z" fill="white" stroke="#4452FB" stroke-width="2.08143"/>
<path d="M110.161 7.29881C110.911 7.29881 111.519 6.65458 111.519 5.85989C111.519 5.06519 110.911 4.42096 110.161 4.42096C109.411 4.42096 108.803 5.06519 108.803 5.85989C108.803 6.65458 109.411 7.29881 110.161 7.29881Z" fill="#2900CD" fill-opacity="0.67"/>
<path d="M114.688 7.29881C115.438 7.29881 116.047 6.65458 116.047 5.85989C116.047 5.06519 115.438 4.42096 114.688 4.42096C113.938 4.42096 113.33 5.06519 113.33 5.85989C113.33 6.65458 113.938 7.29881 114.688 7.29881Z" fill="#2900CD" fill-opacity="0.67"/>
<path d="M119.216 7.29881C119.966 7.29881 120.574 6.65458 120.574 5.85989C120.574 5.06519 119.966 4.42096 119.216 4.42096C118.465 4.42096 117.857 5.06519 117.857 5.85989C117.857 6.65458 118.465 7.29881 119.216 7.29881Z" fill="#2900CD" fill-opacity="0.67"/>
<path d="M114.236 55.9026H112.726C112.393 55.9026 112.123 56.1889 112.123 56.5421C112.123 56.8953 112.393 57.1816 112.726 57.1816H114.236C114.569 57.1816 114.839 56.8953 114.839 56.5421C114.839 56.1889 114.569 55.9026 114.236 55.9026Z" fill="#2900CD" fill-opacity="0.67"/>
<path d="M114.236 23.9264H112.726C112.393 23.9264 112.123 24.2127 112.123 24.5659C112.123 24.9191 112.393 25.2055 112.726 25.2055H114.236C114.569 25.2055 114.839 24.9191 114.839 24.5659C114.839 24.2127 114.569 23.9264 114.236 23.9264Z" fill="#2900CD" fill-opacity="0.67"/>
<path fill-rule="evenodd" clip-rule="evenodd" d="M117.253 23.9264H121.329C121.662 23.9264 121.932 24.2127 121.932 24.5659C121.932 24.9191 121.662 25.2055 121.329 25.2055H117.253C116.92 25.2055 116.65 24.9191 116.65 24.5659C116.65 24.2127 116.92 23.9264 117.253 23.9264Z" fill="#2900CD" fill-opacity="0.67"/>
<path fill-rule="evenodd" clip-rule="evenodd" d="M124.044 23.9264H128.119C128.453 23.9264 128.723 24.2127 128.723 24.5659C128.723 24.9191 128.453 25.2055 128.119 25.2055H124.044C123.711 25.2055 123.441 24.9191 123.441 24.5659C123.441 24.2127 123.711 23.9264 124.044 23.9264Z" fill="#2900CD" fill-opacity="0.67"/>
<path fill-rule="evenodd" clip-rule="evenodd" d="M130.835 23.9264H138.381C138.714 23.9264 138.984 24.2127 138.984 24.5659C138.984 24.9191 138.714 25.2055 138.381 25.2055H130.835C130.502 25.2055 130.232 24.9191 130.232 24.5659C130.232 24.2127 130.502 23.9264 130.835 23.9264Z" fill="#2900CD" fill-opacity="0.67"/>
<path fill-rule="evenodd" clip-rule="evenodd" d="M141.096 23.9264H152.264C152.597 23.9264 152.867 24.2127 152.867 24.5659C152.867 24.9191 152.597 25.2055 152.264 25.2055H141.096C140.763 25.2055 140.493 24.9191 140.493 24.5659C140.493 24.2127 140.763 23.9264 141.096 23.9264Z" fill="#2900CD" fill-opacity="0.67"/>
<path d="M114.236 30.3217H112.726C112.393 30.3217 112.123 30.608 112.123 30.9612C112.123 31.3144 112.393 31.6007 112.726 31.6007H114.236C114.569 31.6007 114.839 31.3144 114.839 30.9612C114.839 30.608 114.569 30.3217 114.236 30.3217Z" fill="#2900CD" fill-opacity="0.67"/>
<path d="M114.236 36.7169H112.726C112.393 36.7169 112.123 37.0032 112.123 37.3564C112.123 37.7096 112.393 37.996 112.726 37.996H114.236C114.569 37.996 114.839 37.7096 114.839 37.3564C114.839 37.0032 114.569 36.7169 114.236 36.7169Z" fill="#2900CD" fill-opacity="0.67"/>
<path d="M114.236 43.1121H112.726C112.393 43.1121 112.123 43.3984 112.123 43.7516C112.123 44.1048 112.393 44.3912 112.726 44.3912H114.236C114.569 44.3912 114.839 44.1048 114.839 43.7516C114.839 43.3984 114.569 43.1121 114.236 43.1121Z" fill="#2900CD" fill-opacity="0.67"/>
<path d="M114.236 49.5073H112.726C112.393 49.5073 112.123 49.7936 112.123 50.1468C112.123 50.5 112.393 50.7864 112.726 50.7864H114.236C114.569 50.7864 114.839 50.5 114.839 50.1468C114.839 49.7936 114.569 49.5073 114.236 49.5073Z" fill="#2900CD" fill-opacity="0.67"/>
<path d="M114.236 62.2978H112.726C112.393 62.2978 112.123 62.5841 112.123 62.9373C112.123 63.2905 112.393 63.5769 112.726 63.5769H114.236C114.569 63.5769 114.839 63.2905 114.839 62.9373C114.839 62.5841 114.569 62.2978 114.236 62.2978Z" fill="#2900CD" fill-opacity="0.67"/>
<path d="M114.236 68.6931H112.726C112.393 68.6931 112.123 68.9794 112.123 69.3326C112.123 69.6858 112.393 69.9721 112.726 69.9721H114.236C114.569 69.9721 114.839 69.6858 114.839 69.3326C114.839 68.9794 114.569 68.6931 114.236 68.6931Z" fill="#2900CD" fill-opacity="0.67"/>
<path d="M126.61 30.3217H117.253C116.92 30.3217 116.65 30.608 116.65 30.9612C116.65 31.3144 116.92 31.6007 117.253 31.6007H126.61C126.943 31.6007 127.214 31.3144 127.214 30.9612C127.214 30.608 126.943 30.3217 126.61 30.3217Z" fill="#2900CD" fill-opacity="0.67"/>
<path d="M146.228 30.3217H129.326C128.993 30.3217 128.723 30.608 128.723 30.9612C128.723 31.3144 128.993 31.6007 129.326 31.6007H146.228C146.561 31.6007 146.831 31.3144 146.831 30.9612C146.831 30.608 146.561 30.3217 146.228 30.3217Z" fill="#2900CD" fill-opacity="0.67"/>
<path d="M155.282 30.3217H148.944C148.61 30.3217 148.34 30.608 148.34 30.9612C148.34 31.3144 148.61 31.6007 148.944 31.6007H155.282C155.615 31.6007 155.886 31.3144 155.886 30.9612C155.886 30.608 155.615 30.3217 155.282 30.3217Z" fill="#2900CD" fill-opacity="0.67"/>
<path d="M123.592 36.7169H117.253C116.92 36.7169 116.65 37.0032 116.65 37.3564C116.65 37.7096 116.92 37.996 117.253 37.996H123.592C123.925 37.996 124.195 37.7096 124.195 37.3564C124.195 37.0032 123.925 36.7169 123.592 36.7169Z" fill="#2900CD" fill-opacity="0.67"/>
<path d="M132.647 36.7169H126.308C125.975 36.7169 125.704 37.0032 125.704 37.3564C125.704 37.7096 125.975 37.996 126.308 37.996H132.647C132.98 37.996 133.25 37.7096 133.25 37.3564C133.25 37.0032 132.98 36.7169 132.647 36.7169Z" fill="#2900CD" fill-opacity="0.67"/>
<path d="M138.683 36.7169H135.362C135.029 36.7169 134.759 37.0032 134.759 37.3564C134.759 37.7096 135.029 37.996 135.362 37.996H138.683C139.016 37.996 139.286 37.7096 139.286 37.3564C139.286 37.0032 139.016 36.7169 138.683 36.7169Z" fill="#2900CD" fill-opacity="0.67"/>
<path d="M131.137 43.1121H117.253C116.92 43.1121 116.65 43.3984 116.65 43.7516C116.65 44.1048 116.92 44.3912 117.253 44.3912H131.137C131.471 44.3912 131.741 44.1048 131.741 43.7516C131.741 43.3984 131.471 43.1121 131.137 43.1121Z" fill="#2900CD" fill-opacity="0.67"/>
<path d="M143.21 43.1121H133.853C133.52 43.1121 133.25 43.3984 133.25 43.7516C133.25 44.1048 133.52 44.3912 133.853 44.3912H143.21C143.543 44.3912 143.813 44.1048 143.813 43.7516C143.813 43.3984 143.543 43.1121 143.21 43.1121Z" fill="#2900CD" fill-opacity="0.67"/>
<path d="M131.137 49.5073H117.253C116.92 49.5073 116.65 49.7936 116.65 50.1468C116.65 50.5 116.92 50.7864 117.253 50.7864H131.137C131.471 50.7864 131.741 50.5 131.741 50.1468C131.741 49.7936 131.471 49.5073 131.137 49.5073Z" fill="#2900CD" fill-opacity="0.67"/>
<path d="M152.264 49.5073H133.853C133.52 49.5073 133.25 49.7936 133.25 50.1468C133.25 50.5 133.52 50.7864 133.853 50.7864H152.264C152.597 50.7864 152.867 50.5 152.867 50.1468C152.867 49.7936 152.597 49.5073 152.264 49.5073Z" fill="#2900CD" fill-opacity="0.67"/>
<path d="M126.61 55.9026H117.253C116.92 55.9026 116.65 56.1889 116.65 56.5421C116.65 56.8953 116.92 57.1816 117.253 57.1816H126.61C126.943 57.1816 127.214 56.8953 127.214 56.5421C127.214 56.1889 126.943 55.9026 126.61 55.9026Z" fill="#2900CD" fill-opacity="0.67"/>
<path d="M138.683 55.9026H129.326C128.993 55.9026 128.723 56.1889 128.723 56.5421C128.723 56.8953 128.993 57.1816 129.326 57.1816H138.683C139.016 57.1816 139.286 56.8953 139.286 56.5421C139.286 56.1889 139.016 55.9026 138.683 55.9026Z" fill="#2900CD" fill-opacity="0.67"/>
<path d="M146.228 55.9026H141.398C141.065 55.9026 140.795 56.1889 140.795 56.5421C140.795 56.8953 141.065 57.1816 141.398 57.1816H146.228C146.561 57.1816 146.831 56.8953 146.831 56.5421C146.831 56.1889 146.561 55.9026 146.228 55.9026Z" fill="#2900CD" fill-opacity="0.67"/>
<path d="M135.665 62.2978H117.253C116.92 62.2978 116.65 62.5841 116.65 62.9373C116.65 63.2905 116.92 63.5769 117.253 63.5769H135.665C135.998 63.5769 136.268 63.2905 136.268 62.9373C136.268 62.5841 135.998 62.2978 135.665 62.2978Z" fill="#2900CD" fill-opacity="0.67"/>
<path d="M125.101 68.6931H117.253C116.92 68.6931 116.65 68.9794 116.65 69.3326C116.65 69.6858 116.92 69.9721 117.253 69.9721H125.101C125.434 69.9721 125.704 69.6858 125.704 69.3326C125.704 68.9794 125.434 68.6931 125.101 68.6931Z" fill="#2900CD" fill-opacity="0.67"/>
<path fill-rule="evenodd" clip-rule="evenodd" d="M239.94 59.42H322.635V121.779C322.635 124.249 320.746 126.25 318.412 126.25H244.163C241.832 126.25 239.94 124.246 239.94 121.779V59.42Z" fill="white" stroke="#4452FB" stroke-width="2.08143"/>
<path fill-rule="evenodd" clip-rule="evenodd" d="M239.94 55.8986C239.94 53.4275 241.83 51.4259 244.163 51.4259H318.412C320.745 51.4259 322.635 53.4274 322.635 55.8986V60.699H239.94V55.8986Z" fill="white" stroke="#4452FB" stroke-width="2.08143"/>
<path d="M246.429 57.5014C247.179 57.5014 247.787 56.8572 247.787 56.0625C247.787 55.2678 247.179 54.6235 246.429 54.6235C245.679 54.6235 245.071 55.2678 245.071 56.0625C245.071 56.8572 245.679 57.5014 246.429 57.5014Z" fill="#2900CD" fill-opacity="0.67"/>
<path d="M250.956 57.5014C251.706 57.5014 252.314 56.8572 252.314 56.0625C252.314 55.2678 251.706 54.6235 250.956 54.6235C250.206 54.6235 249.598 55.2678 249.598 56.0625C249.598 56.8572 250.206 57.5014 250.956 57.5014Z" fill="#2900CD" fill-opacity="0.67"/>
<path d="M255.483 57.5014C256.233 57.5014 256.841 56.8572 256.841 56.0625C256.841 55.2678 256.233 54.6235 255.483 54.6235C254.733 54.6235 254.125 55.2678 254.125 56.0625C254.125 56.8572 254.733 57.5014 255.483 57.5014Z" fill="#2900CD" fill-opacity="0.67"/>
<path d="M291.097 108.823C299.431 108.823 306.187 101.665 306.187 92.835C306.187 84.0051 299.431 76.847 291.097 76.847C282.762 76.847 276.006 84.0051 276.006 92.835C276.006 101.665 282.762 108.823 291.097 108.823Z" fill="white" stroke="#4452FB" stroke-width="2.34161"/>
<path fill-rule="evenodd" clip-rule="evenodd" d="M289.436 74.9284V78.7655H293.059V74.9284H289.436Z" fill="white" stroke="#4452FB" stroke-width="2.08143"/>
<path fill-rule="evenodd" clip-rule="evenodd" d="M289.285 106.905V110.742H292.908V106.905H289.285Z" fill="white" stroke="#4452FB" stroke-width="2.08143"/>
<path fill-rule="evenodd" clip-rule="evenodd" d="M274.195 91.0764V94.9135H277.817V91.0764H274.195Z" fill="white" stroke="#4452FB" stroke-width="2.08143"/>
<path fill-rule="evenodd" clip-rule="evenodd" d="M304.225 91.0764V94.9135H307.848V91.0764H304.225Z" fill="white" stroke="#4452FB" stroke-width="2.08143"/>
<path d="M306.187 78.4457V90.4368" stroke="#4452FB" stroke-width="2.08143" stroke-linecap="square"/>
<path d="M306.187 95.2332V107.224" stroke="#4452FB" stroke-width="2.08143" stroke-linecap="square"/>
<path d="M306.187 79.8847C307.187 79.8847 307.998 79.0257 307.998 77.9661C307.998 76.9065 307.187 76.0475 306.187 76.0475C305.187 76.0475 304.376 76.9065 304.376 77.9661C304.376 79.0257 305.187 79.8847 306.187 79.8847Z" fill="#2900CD" fill-opacity="0.67"/>
<path d="M306.187 110.262C307.187 110.262 307.998 109.403 307.998 108.344C307.998 107.284 307.187 106.425 306.187 106.425C305.187 106.425 304.376 107.284 304.376 108.344C304.376 109.403 305.187 110.262 306.187 110.262Z" fill="#2900CD" fill-opacity="0.67"/>
<path d="M262.275 73.4895H256.538C255.538 73.4895 254.728 74.3485 254.728 75.4081V81.4835C254.728 82.5431 255.538 83.4021 256.538 83.4021H262.275C263.275 83.4021 264.085 82.5431 264.085 81.4835V75.4081C264.085 74.3485 263.275 73.4895 262.275 73.4895Z" fill="white" stroke="#4452FB" stroke-width="2.08143"/>
<path d="M262.275 87.8787H256.538C255.538 87.8787 254.728 88.7377 254.728 89.7973V95.8728C254.728 96.9324 255.538 97.7913 256.538 97.7913H262.275C263.275 97.7913 264.085 96.9324 264.085 95.8728V89.7973C264.085 88.7377 263.275 87.8787 262.275 87.8787Z" fill="white" stroke="#4452FB" stroke-width="2.08143"/>
<path d="M262.275 102.268H256.538C255.538 102.268 254.728 103.127 254.728 104.187V110.262C254.728 111.322 255.538 112.181 256.538 112.181H262.275C263.275 112.181 264.085 111.322 264.085 110.262V104.187C264.085 103.127 263.275 102.268 262.275 102.268Z" fill="white" stroke="#4452FB" stroke-width="2.08143"/>
<path d="M365.946 156.468C370.946 156.468 375 152.173 375 146.875C375 141.577 370.946 137.282 365.946 137.282C360.945 137.282 356.891 141.577 356.891 146.875C356.891 152.173 360.945 156.468 365.946 156.468Z" fill="white" stroke="#4452FB" stroke-width="2.08143"/>
<path d="M365.946 152.471C368.863 152.471 371.227 149.965 371.227 146.875C371.227 143.784 368.863 141.279 365.946 141.279C363.029 141.279 360.664 143.784 360.664 146.875C360.664 149.965 363.029 152.471 365.946 152.471Z" fill="white" stroke="#4452FB" stroke-width="2.08143"/>
<path d="M353.873 135.523C355.54 135.523 356.891 134.092 356.891 132.326C356.891 130.56 355.54 129.128 353.873 129.128C352.206 129.128 350.855 130.56 350.855 132.326C350.855 134.092 352.206 135.523 353.873 135.523Z" fill="white" stroke="#4452FB" stroke-width="2.08143"/>
<path fill-rule="evenodd" clip-rule="evenodd" d="M340.593 131.526C340.26 131.526 339.99 131.813 339.99 132.166V159.026C339.99 160.792 341.34 162.223 343.006 162.223H363.825C365.49 162.223 366.841 160.792 366.841 159.026V132.166C366.841 131.813 366.571 131.526 366.238 131.526H340.593Z" fill="white" stroke="#4452FB" stroke-width="2.08143"/>
<path d="M358.855 140.16H354.626C353.627 140.16 352.817 141.019 352.817 142.078V148.474C352.817 149.533 353.627 150.392 354.626 150.392H358.855C359.854 150.392 360.664 149.533 360.664 148.474V142.078C360.664 141.019 359.854 140.16 358.855 140.16Z" fill="white" stroke="#4452FB" stroke-width="2.08143"/>
<path d="M356.665 131.766V139.041" stroke="#4452FB" stroke-width="2.08143" stroke-linecap="square"/>
<path fill-rule="evenodd" clip-rule="evenodd" d="M322.787 162.063C327.787 162.063 331.841 162.063 331.841 162.063C331.841 156.765 327.787 152.471 322.787 152.471C317.786 152.471 313.732 156.765 313.732 162.063C313.732 162.063 317.786 162.063 322.787 162.063Z" fill="white" stroke="#4452FB" stroke-width="2.08143"/>
<path d="M323.39 152.791C323.39 152.437 323.12 152.151 322.787 152.151C322.453 152.151 322.183 152.437 322.183 152.791V153.589C322.183 153.943 322.453 154.229 322.787 154.229C323.12 154.229 323.39 153.943 323.39 153.589V152.791Z" fill="#2900CD" fill-opacity="0.67"/>
<path fill-rule="evenodd" clip-rule="evenodd" d="M8.89778 143.197C3.98367 143.197 0 147.421 0 152.63C0 157.84 3.98367 162.064 8.89778 162.064H45.4238C45.9236 162.064 46.3287 161.634 46.3287 161.104V159.62C46.3287 158.948 45.8393 158.391 45.2077 158.344C41.0611 158.032 38.8586 156.1 38.8586 152.63C38.8586 149.161 41.0611 147.229 45.2077 146.917C45.8393 146.87 46.3287 146.313 46.3287 145.641V144.157C46.3287 143.627 45.9236 143.197 45.4238 143.197H8.89778Z" fill="white" stroke="#4452FB" stroke-width="2.08143"/>
<path d="M45.8756 158.746C45.8756 158.9 45.7572 159.026 45.6111 159.026H41.3353H8.75289C5.41918 159.026 2.71667 156.162 2.71667 152.63C2.71667 149.099 5.41918 146.235 8.75289 146.235H41.3353H45.6111C45.7572 146.235 45.8756 146.361 45.8756 146.515" stroke="#4452FB" stroke-width="2.08143"/>
<path d="M38.6325 149.912H8.14889C7.81573 149.912 7.54565 150.199 7.54565 150.552C7.54565 150.905 7.81573 151.192 8.14889 151.192H38.6325C38.9657 151.192 39.2358 150.905 39.2358 150.552C39.2358 150.199 38.9657 149.912 38.6325 149.912Z" fill="#2900CD" fill-opacity="0.67"/>
<path d="M38.6325 153.909H8.14889C7.81573 153.909 7.54565 154.196 7.54565 154.549C7.54565 154.902 7.81573 155.189 8.14889 155.189H38.6325C38.9657 155.189 39.2358 154.902 39.2358 154.549C39.2358 154.196 38.9657 153.909 38.6325 153.909Z" fill="#2900CD" fill-opacity="0.67"/>
<path d="M37.1464 111.278C36.4058 110.581 35.6652 109.883 34.9246 109.186C33.7445 108.075 32.5676 106.961 31.3874 105.851C31.1169 105.598 30.8464 105.342 30.5792 105.089C30.5792 105.424 30.5792 105.762 30.5792 106.096C31.3198 105.399 32.0604 104.701 32.801 104.004C33.9812 102.893 35.158 101.779 36.3382 100.669C36.6087 100.416 36.8792 100.16 37.1464 99.9074C37.4102 99.6583 37.4068 99.1493 37.1464 98.9002C36.8657 98.6262 36.4734 98.6333 36.1894 98.9002C35.4488 99.5978 34.7082 100.295 33.9676 100.993C32.7874 102.103 31.6106 103.217 30.4304 104.328C30.1599 104.58 29.8894 104.837 29.6222 105.089C29.3618 105.335 29.3618 105.851 29.6222 106.096C30.3628 106.794 31.1034 107.492 31.844 108.189C33.0242 109.3 34.201 110.414 35.3812 111.524C35.6517 111.777 35.9222 112.033 36.1894 112.286C36.4531 112.535 36.8894 112.581 37.1464 112.286C37.3831 112.015 37.4271 111.545 37.1464 111.278Z" fill="#2900CD" fill-opacity="0.67"/>
<path d="M48.4238 99.9091C49.1644 100.607 49.905 101.304 50.6455 102.002C51.8257 103.112 53.0025 104.226 54.1827 105.337C54.4533 105.589 54.7238 105.846 54.9909 106.098C54.9909 105.764 54.9909 105.426 54.9909 105.091C54.2504 105.789 53.5098 106.486 52.7692 107.184C51.589 108.294 50.4122 109.408 49.232 110.518C48.9615 110.771 48.6909 111.027 48.4238 111.28C48.16 111.529 48.1634 112.038 48.4238 112.287C48.7045 112.561 49.0967 112.554 49.3808 112.287C50.1214 111.59 50.862 110.892 51.6025 110.195C52.7827 109.084 53.9595 107.97 55.1397 106.86C55.4103 106.607 55.6808 106.351 55.948 106.098C56.2083 105.853 56.2083 105.337 55.948 105.091C55.2074 104.393 54.4668 103.696 53.7262 102.998C52.546 101.888 51.3692 100.774 50.189 99.6636C49.9185 99.4109 49.6479 99.1546 49.3808 98.902C49.117 98.6528 48.6808 98.6066 48.4238 98.902C48.1871 99.1724 48.1431 99.6422 48.4238 99.9091Z" fill="#2900CD" fill-opacity="0.67"/>
<path d="M40.3733 115.47C40.5762 114.829 40.7757 114.188 40.9786 113.544C41.4622 112.003 41.9458 110.466 42.4293 108.925C43.011 107.067 43.5926 105.213 44.1776 103.355C44.6815 101.75 45.1854 100.145 45.6892 98.5396C45.9293 97.7601 46.1999 96.9843 46.4231 96.1942C46.4264 96.1835 46.4298 96.1728 46.4332 96.1622C46.5448 95.8098 46.3047 95.3685 45.9598 95.2866C45.5878 95.1977 45.2462 95.4041 45.1279 95.7849C44.925 96.4255 44.7255 97.0661 44.5226 97.7103C44.039 99.2514 43.5554 100.789 43.0718 102.33C42.4902 104.188 41.9086 106.042 41.3235 107.9C40.8197 109.505 40.3158 111.11 39.8119 112.715C39.5718 113.491 39.3013 114.267 39.0781 115.057C39.0747 115.068 39.0714 115.078 39.068 115.089C38.9564 115.441 39.1965 115.883 39.5414 115.964C39.9134 116.053 40.2549 115.847 40.3733 115.47Z" fill="#2900CD" fill-opacity="0.67"/>
</svg>
