<svg width="219" height="150" viewBox="0 0 219 150" fill="none" xmlns="http://www.w3.org/2000/svg">
<g clip-path="url(#clip0_17_309)">
<path d="M178.229 15.0757C179.629 10.3227 178.298 4.77957 173.777 1.6532C173.689 6.97453 171.343 12.0983 167.155 16.118C165.534 17.6634 163.537 19.2416 163.458 21.2929C163.409 22.5694 164.157 23.7954 165.188 24.7407C166.219 25.6861 167.52 26.3935 168.805 27.0902L168.994 27.3675C173.131 23.8921 176.83 19.8287 178.229 15.0757Z" fill="#F0F0F0"/>
<path d="M173.687 1.72263C175.42 5.50721 175.678 9.65053 174.423 13.5641C174.171 14.4106 173.76 15.2187 173.206 15.9586C172.638 16.6649 171.853 17.2317 170.934 17.6C170.084 17.9577 169.165 18.2418 168.435 18.7653C168.066 19.0378 167.771 19.3723 167.568 19.7467C167.365 20.1212 167.259 20.5271 167.258 20.9378C167.223 21.9613 167.631 22.9343 168.07 23.8742C168.558 24.9179 169.084 25.9954 168.971 27.138C168.958 27.2765 169.216 27.286 169.23 27.1478C169.426 25.1598 167.805 23.4806 167.548 21.5524C167.428 20.6527 167.633 19.7174 168.431 19.0614C169.13 18.4878 170.077 18.1942 170.941 17.8381C171.844 17.4898 172.632 16.9625 173.235 16.3022C173.832 15.5881 174.28 14.7946 174.558 13.9555C175.22 12.0747 175.523 10.1189 175.456 8.15972C175.394 5.92339 174.873 3.71237 173.916 1.6223C173.857 1.49296 173.628 1.59413 173.687 1.72262V1.72263Z" fill="white"/>
<path d="M174.916 12.3237C175.733 12.4099 176.561 12.2514 177.25 11.8766C177.94 11.5017 178.447 10.9349 178.681 10.2774C178.728 10.1442 178.482 10.0773 178.435 10.2107C178.218 10.8233 177.746 11.3513 177.103 11.6992C176.46 12.0472 175.688 12.1923 174.928 12.1083C174.763 12.0902 174.752 12.3057 174.916 12.3237Z" fill="white"/>
<path d="M171.393 17.4658C170.35 16.3654 169.843 14.978 169.973 13.5802C169.986 13.4418 169.728 13.4322 169.715 13.5705C169.582 15.0253 170.113 16.4682 171.202 17.6112C171.306 17.7201 171.496 17.5741 171.393 17.4658Z" fill="white"/>
<path d="M175.082 6.04301C174.758 6.06452 174.432 6.01858 174.134 5.90932C173.836 5.80005 173.575 5.63088 173.375 5.417C173.273 5.30706 173.083 5.45325 173.184 5.56246C173.406 5.79791 173.694 5.98445 174.023 6.10577C174.352 6.2271 174.712 6.27953 175.07 6.25848C175.104 6.25886 175.137 6.24843 175.162 6.22933C175.187 6.21022 175.203 6.18387 175.205 6.15563C175.207 6.12709 175.195 6.09925 175.172 6.07817C175.148 6.05708 175.116 6.04445 175.082 6.04301Z" fill="white"/>
<path d="M154.228 4.73016C154.289 4.80032 154.35 4.87047 154.411 4.94236C155.231 5.88912 155.958 6.88979 156.583 7.93451C156.633 8.01466 156.682 8.09648 156.729 8.17764C158.204 10.708 159.102 13.4444 159.377 16.2477C159.486 17.3633 159.492 18.4841 159.396 19.6005C159.264 21.1423 158.973 22.8052 159.445 24.2508C159.493 24.402 159.551 24.5507 159.621 24.696L168.573 27.5378C168.597 27.5357 168.621 27.5354 168.645 27.5334L168.996 27.6605C169.006 27.6032 169.015 27.5436 169.024 27.4863C169.03 27.4531 169.034 27.4192 169.04 27.386C169.043 27.3637 169.046 27.3413 169.051 27.3213C169.052 27.3139 169.053 27.3064 169.053 27.3007C169.058 27.2807 169.059 27.2617 169.063 27.2434C169.113 26.9104 169.159 26.5765 169.203 26.2418C169.204 26.2401 169.204 26.2401 169.203 26.2377C169.568 23.6898 169.569 21.1148 169.205 18.5667C169.193 18.4908 169.182 18.4132 169.166 18.336C168.977 17.1994 168.678 16.0776 168.27 14.9816C168.045 14.3821 167.783 13.7925 167.486 13.215C166.715 11.7241 165.667 10.3436 164.381 9.12393C161.816 6.69288 158.346 4.97197 154.52 4.7451C154.422 4.73936 154.326 4.7342 154.228 4.73016Z" fill="#F0F0F0"/>
<path d="M154.204 4.83115C158.325 6.9836 161.526 10.1625 163.353 13.9164C163.764 14.7187 164.02 15.57 164.113 16.4387C164.17 17.2874 163.953 18.1334 163.485 18.8887C163.065 19.6002 162.537 20.2876 162.332 21.0717C162.235 21.4744 162.241 21.8897 162.349 22.2904C162.458 22.6911 162.667 23.0681 162.963 23.3968C163.675 24.2316 164.704 24.8037 165.734 25.334C166.878 25.9229 168.077 26.5194 168.813 27.4882C168.903 27.6056 169.116 27.4835 169.027 27.3663C167.746 25.6807 165.238 25.1528 163.639 23.7422C162.892 23.0839 162.38 22.2344 162.543 21.3101C162.686 20.5019 163.23 19.7927 163.663 19.0752C164.132 18.344 164.38 17.5281 164.384 16.6987C164.345 15.8289 164.128 14.9709 163.744 14.1615C162.913 12.3277 161.741 10.6142 160.271 9.0837C158.605 7.32916 156.59 5.82493 154.315 4.63607C154.174 4.56253 154.065 4.7581 154.204 4.83116V4.83115Z" fill="white"/>
<path d="M162.85 12.6788C163.565 12.338 164.111 11.7967 164.391 11.1516C164.67 10.5065 164.665 9.79964 164.377 9.15722C164.318 9.0274 164.073 9.09751 164.132 9.22751C164.402 9.82531 164.406 10.4838 164.145 11.084C163.883 11.6843 163.372 12.1868 162.704 12.5009C162.559 12.5693 162.706 12.7469 162.85 12.6788Z" fill="white"/>
<path d="M163.755 18.5512C162.126 18.1958 160.718 17.3422 159.812 16.1607C159.722 16.0435 159.509 16.1656 159.598 16.2826C160.544 17.5106 162.011 18.3964 163.707 18.7633C163.869 18.7981 163.915 18.5859 163.755 18.5512Z" fill="white"/>
<path d="M158.442 7.58111C158.198 7.76097 157.905 7.88766 157.588 7.94977C157.271 8.01189 156.941 8.00749 156.627 7.93699C156.466 7.90042 156.419 8.11269 156.579 8.14901C156.927 8.22557 157.292 8.23005 157.642 8.16206C157.992 8.09408 158.317 7.95571 158.588 7.75903C158.616 7.74227 158.635 7.71745 158.641 7.6896C158.647 7.66176 158.64 7.63297 158.622 7.60911C158.602 7.58563 158.573 7.56952 158.539 7.56428C158.505 7.55904 158.47 7.56509 158.442 7.58112V7.58111Z" fill="white"/>
<path d="M142.391 112.094C112.378 112.094 87.9606 91.7593 87.9606 66.7643C87.9606 41.7694 112.378 21.4344 142.391 21.4344C145.564 21.4341 148.731 21.6627 151.857 22.1175C151.896 22.1231 151.933 22.1351 151.966 22.1527C152 22.1703 152.029 22.1933 152.051 22.2202C152.074 22.2471 152.09 22.2775 152.099 22.3097C152.108 22.3418 152.109 22.3751 152.102 22.4075C152.095 22.44 152.08 22.471 152.059 22.4988C152.038 22.5266 152.01 22.5506 151.978 22.5695C151.946 22.5883 151.909 22.6017 151.87 22.6088C151.832 22.6159 151.792 22.6166 151.753 22.6108C148.662 22.1611 145.529 21.935 142.391 21.9353C112.71 21.9353 88.5621 42.0455 88.5621 66.7643C88.5621 91.4832 112.71 111.593 142.391 111.593C172.072 111.593 196.22 91.4832 196.22 66.7643C196.233 55.5917 191.224 44.8196 182.178 36.5689C182.125 36.5197 182.097 36.4551 182.101 36.389C182.105 36.3229 182.14 36.2607 182.198 36.2161C182.257 36.1715 182.335 36.1481 182.414 36.151C182.493 36.1538 182.568 36.1827 182.622 36.2314C191.769 44.5743 196.835 55.4668 196.821 66.7643C196.821 91.7593 172.404 112.094 142.391 112.094Z" fill="#E4E4E4"/>
<path d="M166.391 36.981C172.338 36.981 177.16 32.9656 177.16 28.0124C177.16 23.0592 172.338 19.0439 166.391 19.0439C160.443 19.0439 155.622 23.0592 155.622 28.0124C155.622 32.9656 160.443 36.981 166.391 36.981Z" fill="#00FFD1" fill-opacity="0.7"/>
<path d="M164.922 32.6801C164.736 32.6801 164.552 32.6441 164.386 32.5748C164.219 32.5055 164.075 32.4049 163.963 32.281L161.025 29.0186C160.931 28.9138 160.862 28.7945 160.823 28.6676C160.784 28.5407 160.776 28.4086 160.798 28.2789C160.82 28.1492 160.873 28.0245 160.953 27.9118C161.033 27.799 161.139 27.7006 161.265 27.6219C161.391 27.5433 161.534 27.4862 161.686 27.4536C161.839 27.4211 161.997 27.4139 162.153 27.4325C162.309 27.451 162.459 27.4949 162.594 27.5617C162.729 27.6284 162.848 27.7167 162.942 27.8215L164.864 29.9557L169.801 23.7888C169.978 23.5695 170.251 23.4176 170.562 23.3662C170.873 23.3148 171.196 23.3682 171.46 23.5147C171.724 23.6611 171.907 23.8887 171.97 24.1476C172.032 24.4064 171.969 24.6754 171.794 24.8956L165.918 32.2358C165.812 32.3686 165.669 32.4782 165.501 32.5554C165.334 32.6327 165.146 32.6753 164.955 32.6798C164.944 32.68 164.933 32.6801 164.922 32.6801Z" fill="white"/>
<path d="M140.991 59.7296L124.384 21.2541L124.805 21.1281L121.751 14.0514L121.33 14.1776L116.231 2.3644C116.04 1.92319 115.747 1.51753 115.369 1.1706C114.99 0.82366 114.533 0.542238 114.024 0.342396C113.514 0.142554 112.963 0.0282044 112.4 0.00588052C111.838 -0.0164433 111.276 0.0536943 110.746 0.212288L80.7246 9.19944C80.1948 9.35802 79.7077 9.60195 79.2911 9.91731C78.8745 10.2327 78.5365 10.6133 78.2966 11.0374C78.0566 11.4615 77.9193 11.9208 77.8924 12.3892C77.8656 12.8575 77.9498 13.3256 78.1402 13.7668L81.6954 22.0037L81.03 22.2171L83.2995 27.125L83.8322 26.9541L84.3034 28.0458L83.7365 28.2277L86.006 33.1356L86.4401 32.9964L102.9 71.1321C103.09 71.5738 103.382 71.9801 103.761 72.3275C104.139 72.6749 104.596 72.9567 105.106 73.1566C105.615 73.3566 106.167 73.4708 106.73 73.4927C107.293 73.5146 107.855 73.4438 108.385 73.2843L138.406 64.2971C139.475 63.9759 140.348 63.3147 140.832 62.4584C141.317 61.6021 141.374 60.6208 140.991 59.7296Z" fill="#3F3D56"/>
<path d="M106.806 72.0162C106.383 72.0154 105.971 71.9063 105.625 71.7035C105.28 71.5008 105.017 71.2144 104.874 70.8831L79.8527 12.9124C79.6684 12.4855 79.6954 12.015 79.9276 11.6046C80.1598 11.1942 80.5783 10.8774 81.0909 10.7239L87.4786 8.81171L87.4691 8.99783C87.4527 9.32091 87.5319 9.6424 87.6999 9.93397C87.8678 10.2255 88.1193 10.4782 88.4321 10.6698C88.7449 10.8613 89.1095 10.9859 89.4938 11.0325C89.878 11.079 90.2702 11.0462 90.6356 10.9368L104.812 6.69312C105.154 6.56255 105.454 6.36673 105.689 6.12151C105.923 5.87629 106.085 5.58855 106.161 5.28157C106.237 4.97971 106.225 4.66729 106.128 4.3698C106.031 4.07231 105.85 3.79819 105.602 3.56981L105.452 3.43125L112.05 1.45597C112.563 1.30313 113.127 1.32587 113.62 1.51921C114.113 1.71255 114.493 2.0607 114.678 2.48733L138.551 57.7962C139.038 58.9293 138.966 60.177 138.35 61.2656C137.734 62.3543 136.624 63.1951 135.265 63.6035L107.502 71.9145C107.279 71.9816 107.043 72.016 106.806 72.0162Z" fill="white"/>
<path d="M104.36 30.8987C108.844 30.8987 112.479 27.8713 112.479 24.1368C112.479 20.4023 108.844 17.3749 104.36 17.3749C99.8757 17.3749 96.2405 20.4023 96.2405 24.1368C96.2405 27.8713 99.8757 30.8987 104.36 30.8987Z" fill="#00FFD1" fill-opacity="0.7"/>
<path d="M124.48 33.9703L96.3618 42.3876C96.274 42.4141 96.1807 42.4258 96.0874 42.4223C95.9941 42.4187 95.9026 42.3998 95.818 42.3668C95.7335 42.3337 95.6576 42.2871 95.5947 42.2295C95.5319 42.172 95.4833 42.1047 95.4517 42.0315C95.4201 41.9583 95.4061 41.8806 95.4106 41.8029C95.4151 41.7252 95.438 41.649 95.4779 41.5787C95.5178 41.5084 95.574 41.4453 95.6432 41.3931C95.7124 41.3408 95.7933 41.3005 95.8813 41.2744L123.999 32.857C124.176 32.8045 124.371 32.8125 124.541 32.8794C124.711 32.9464 124.843 33.0667 124.906 33.2141C124.97 33.3615 124.961 33.5238 124.881 33.6656C124.801 33.8073 124.657 33.9169 124.48 33.9703Z" fill="#E6E6E6"/>
<path d="M116.13 39.3072L106.881 42.0759C106.793 42.1023 106.7 42.1141 106.607 42.1105C106.513 42.1069 106.422 42.088 106.337 42.055C106.253 42.0219 106.177 41.9752 106.114 41.9177C106.051 41.8602 106.003 41.7929 105.971 41.7197C105.939 41.6465 105.925 41.5689 105.93 41.4912C105.934 41.4135 105.957 41.3373 105.997 41.267C106.037 41.1967 106.093 41.1336 106.162 41.0814C106.232 41.0291 106.312 40.9888 106.4 40.9626L115.649 38.1939C115.826 38.1409 116.022 38.1486 116.192 38.2155C116.363 38.2823 116.494 38.4029 116.558 38.5505C116.622 38.6981 116.612 38.8608 116.532 39.0027C116.452 39.1446 116.307 39.2541 116.13 39.3072Z" fill="#E6E6E6"/>
<path d="M118.329 44.4039L109.081 47.1726C108.993 47.1989 108.9 47.2105 108.807 47.2068C108.713 47.2031 108.622 47.1841 108.538 47.151C108.453 47.1179 108.378 47.0713 108.315 47.0138C108.252 46.9563 108.204 46.8891 108.172 46.816C108.141 46.7429 108.127 46.6654 108.131 46.5878C108.135 46.5102 108.158 46.4341 108.198 46.3638C108.238 46.2936 108.294 46.2305 108.363 46.1782C108.432 46.126 108.512 46.0856 108.6 46.0593L117.849 43.2906C118.026 43.2375 118.222 43.2453 118.392 43.3122C118.562 43.379 118.694 43.4995 118.758 43.6472C118.821 43.7948 118.812 43.9575 118.732 44.0994C118.651 44.2413 118.507 44.3508 118.329 44.4039V44.4039Z" fill="#E6E6E6"/>
<path d="M119.456 47.0144L110.207 49.7831C110.12 49.8096 110.026 49.8214 109.933 49.8178C109.84 49.8143 109.748 49.7954 109.664 49.7624C109.579 49.7293 109.503 49.6827 109.44 49.6251C109.377 49.5676 109.329 49.5003 109.297 49.4271C109.266 49.3538 109.252 49.2762 109.256 49.1985C109.261 49.1207 109.283 49.0445 109.323 48.9742C109.363 48.9039 109.42 48.8408 109.489 48.7885C109.558 48.7363 109.639 48.696 109.727 48.6699L118.976 45.9012C119.064 45.8747 119.157 45.8629 119.25 45.8665C119.343 45.87 119.435 45.8889 119.52 45.922C119.604 45.9551 119.68 46.0017 119.743 46.0592C119.806 46.1168 119.854 46.184 119.886 46.2572C119.917 46.3304 119.931 46.4081 119.927 46.4858C119.922 46.5635 119.9 46.6397 119.86 46.71C119.82 46.7804 119.764 46.8435 119.694 46.8957C119.625 46.9479 119.544 46.9882 119.456 47.0144L119.456 47.0144Z" fill="#E6E6E6"/>
<path d="M122.401 40.267L102.778 46.1412C102.691 46.1677 102.597 46.1795 102.504 46.1759C102.411 46.1724 102.319 46.1535 102.235 46.1204C102.15 46.0874 102.074 46.0407 102.011 45.9832C101.948 45.9257 101.9 45.8584 101.868 45.7852C101.837 45.712 101.823 45.6343 101.827 45.5566C101.832 45.4789 101.855 45.4027 101.894 45.3324C101.934 45.262 101.991 45.199 102.06 45.1467C102.129 45.0945 102.21 45.0542 102.298 45.028L121.921 39.1538C122.009 39.1273 122.102 39.1155 122.195 39.1191C122.288 39.1227 122.38 39.1415 122.464 39.1746C122.549 39.2077 122.625 39.2543 122.688 39.3118C122.751 39.3694 122.799 39.4367 122.831 39.5099C122.862 39.5831 122.876 39.6607 122.872 39.7384C122.867 39.8161 122.845 39.8923 122.805 39.9627C122.765 40.033 122.709 40.0961 122.639 40.1483C122.57 40.2005 122.489 40.2409 122.401 40.267Z" fill="#E6E6E6"/>
<path d="M118.449 53.3514L115.09 54.3566C114.789 54.4467 114.457 54.4333 114.168 54.3196C113.878 54.2059 113.655 54.001 113.546 53.7501C113.438 53.4992 113.454 53.2228 113.59 52.9815C113.726 52.7403 113.972 52.554 114.273 52.4636L117.632 51.4583C117.933 51.3683 118.265 51.3816 118.554 51.4954C118.844 51.6091 119.068 51.8139 119.176 52.0649C119.284 52.3158 119.268 52.5922 119.132 52.8335C118.996 53.0747 118.75 53.261 118.449 53.3514Z" fill="#6C63FF"/>
<path d="M91.985 8.99918C92.2429 8.99918 92.452 8.82505 92.452 8.61025C92.452 8.39544 92.2429 8.22131 91.985 8.22131C91.727 8.22131 91.5179 8.39544 91.5179 8.61025C91.5179 8.82505 91.727 8.99918 91.985 8.99918Z" fill="white"/>
<path d="M38.2766 30.4847C43.5108 25.3535 52.0036 22.1198 59.8333 23.7963C52.7814 28.1686 47.8137 34.4772 45.8093 41.606C45.0483 44.3577 44.5458 47.4842 41.8632 49.2111C40.1941 50.2856 37.9497 50.5794 35.8531 50.3844C33.7564 50.1893 31.7608 49.5522 29.7921 48.9206L29.2687 48.969C30.5854 42.3261 33.0424 35.6158 38.2766 30.4847Z" fill="#F0F0F0"/>
<path d="M59.8136 23.9366C53.3497 25.3782 47.5956 28.4793 43.3685 32.7994C42.4386 33.716 41.6881 34.7489 41.1445 35.8601C40.657 36.9568 40.531 38.1422 40.7796 39.2932C40.9855 40.3703 41.3459 41.4521 41.2339 42.5521C41.1665 43.1145 40.9572 43.6586 40.6195 44.1488C40.2819 44.6391 39.8237 45.0643 39.2749 45.3968C37.9333 46.2546 36.3016 46.6599 34.6894 47.0101C32.8993 47.3988 31.0326 47.779 29.594 48.8048C29.4197 48.9291 29.1983 48.6966 29.3723 48.5725C31.8753 46.7877 35.4302 46.9391 38.2186 45.6232C39.5197 45.0092 40.6066 44.065 40.8407 42.7945C41.0454 41.6835 40.6749 40.5676 40.4551 39.4786C40.1928 38.3587 40.2637 37.2024 40.6617 36.1106C41.1356 34.98 41.8371 33.9247 42.7361 32.99C44.7199 30.8589 47.0936 29.0008 49.7704 27.4838C52.8139 25.7383 56.1935 24.4393 59.763 23.6429C59.9839 23.5936 60.0331 23.8877 59.8136 23.9366H59.8136Z" fill="white"/>
<path d="M44.6313 31.3416C43.8572 30.6526 43.4024 29.7568 43.3482 28.8143C43.294 27.8719 43.6438 26.944 44.3351 26.1965C44.4757 26.0456 44.7637 26.2204 44.623 26.3714C43.9777 27.0665 43.6519 27.9309 43.7046 28.8084C43.7573 29.686 44.1849 30.519 44.9102 31.157C45.0677 31.2958 44.7878 31.4796 44.6312 31.3416H44.6313Z" fill="white"/>
<path d="M40.5888 38.7585C42.9028 38.8399 45.1687 38.192 46.9346 36.9439C47.1094 36.8202 47.3308 37.0526 47.1562 37.1763C45.3157 38.4722 42.9561 39.1425 40.5483 39.0533C40.3188 39.0447 40.3606 38.75 40.5888 38.7585Z" fill="white"/>
<path d="M52.9052 26.1244C53.138 26.443 53.4622 26.7084 53.8486 26.8968C54.235 27.0853 54.6716 27.1909 55.1191 27.2041C55.3486 27.2103 55.3066 27.5051 55.0785 27.4989C54.5842 27.4824 54.1022 27.3653 53.6747 27.1579C53.2472 26.9504 52.8873 26.659 52.6262 26.309C52.5983 26.2777 52.5857 26.2387 52.591 26.2C52.5964 26.1613 52.6192 26.1257 52.6549 26.1005C52.692 26.0762 52.7391 26.0651 52.7859 26.0696C52.8328 26.074 52.8757 26.0937 52.9052 26.1244Z" fill="white"/>
<path d="M71.4759 44.4273C71.3325 44.4268 71.189 44.4263 71.0438 44.4279C69.1153 44.4298 67.1902 44.5621 65.2874 44.8237C65.1399 44.842 64.9907 44.8623 64.8442 44.8841C60.268 45.5549 55.8812 46.9274 51.9067 48.9319C50.326 49.7308 48.8206 50.6286 47.4035 51.6177C45.4466 52.9837 43.4552 54.5945 41.1388 55.3209C40.8982 55.399 40.652 55.4645 40.4016 55.5172L29.3801 49.4971C29.3633 49.4729 29.3447 49.4508 29.3278 49.4266L28.8746 49.203C28.9434 49.1477 29.0162 49.0916 29.085 49.0364C29.1247 49.0042 29.1669 48.9733 29.2067 48.9411C29.234 48.9201 29.2614 48.8991 29.2846 48.8788C29.2936 48.8718 29.3028 48.8648 29.3102 48.8599C29.3334 48.8396 29.3575 48.8228 29.379 48.8046C29.7848 48.4902 30.1941 48.1776 30.6066 47.8668C30.6083 47.8647 30.6083 47.8647 30.6124 47.864C33.7631 45.5028 37.1783 43.3399 40.8791 41.6774C40.9904 41.6275 41.1033 41.5753 41.2197 41.5281C42.8929 40.7864 44.636 40.1599 46.4317 39.6548C47.416 39.3808 48.4164 39.1485 49.4289 38.9588C52.0463 38.4728 54.7392 38.3326 57.4088 38.5435C62.7307 38.9646 67.8317 40.7984 71.2201 44.1677C71.3067 44.254 71.391 44.3389 71.4759 44.4273Z" fill="#F0F0F0"/>
<path d="M71.3594 44.5302C65.1562 42.4402 58.32 42.0311 51.8217 43.361C50.4166 43.6266 49.0706 44.075 47.8333 44.6896C46.6511 45.3208 45.6935 46.2042 45.06 47.2478C44.4457 48.211 43.9514 49.2556 43.0667 50.0777C42.6064 50.4929 42.0458 50.8224 41.4218 51.0445C40.7979 51.2667 40.1245 51.3765 39.446 51.3667C37.7547 51.379 36.1588 50.8844 34.6185 50.3556C32.9081 49.7685 31.1428 49.1361 29.2525 49.2338C29.0235 49.2456 29.0148 48.949 29.2435 48.9371C32.5323 48.7671 35.2612 50.6704 38.4389 51.0179C39.9217 51.18 41.4721 50.971 42.5775 50.074C43.5441 49.2896 44.055 48.2129 44.6668 47.2331C45.267 46.2074 46.1596 45.3198 47.2666 44.6476C48.4624 43.9824 49.7854 43.4916 51.179 43.1961C54.3035 42.4892 57.5421 42.1958 60.7761 42.3267C64.4681 42.4591 68.1056 43.1164 71.5314 44.2703C71.7434 44.3418 71.57 44.6012 71.3594 44.5302L71.3594 44.5302Z" fill="white"/>
<path d="M53.8838 42.8302C53.7639 41.8919 54.0484 40.9487 54.6864 40.1689C55.3245 39.3892 56.2746 38.8238 57.367 38.5736C57.5883 38.5236 57.692 38.8076 57.4704 38.8576C56.4526 39.089 55.5677 39.6158 54.9753 40.3429C54.3829 41.07 54.1221 41.9495 54.24 42.8226C54.2654 43.0124 53.909 43.0188 53.8838 42.8302V42.8302Z" fill="white"/>
<path d="M45.2941 46.7252C47.0829 47.9505 49.3605 48.5693 51.6727 48.4582C51.9018 48.447 51.9105 48.7437 51.6817 48.7548C49.2753 48.8667 46.9067 48.2188 45.0487 46.9403C44.8717 46.8183 45.1181 46.6039 45.2942 46.7252H45.2941Z" fill="white"/>
<path d="M64.2619 42.8131C64.2175 43.1841 64.2844 43.5586 64.4567 43.9028C64.629 44.2471 64.9012 44.5503 65.249 44.7852C65.4278 44.9052 65.1811 45.1195 65.0035 45.0003C64.6207 44.7392 64.3205 44.404 64.1292 44.0241C63.9378 43.6441 63.8611 43.2309 63.9057 42.8206C63.906 42.7816 63.9242 42.7442 63.9564 42.7159C63.9886 42.6877 64.0326 42.6707 64.0793 42.6685C64.1265 42.6677 64.1721 42.6824 64.2063 42.7095C64.2405 42.7366 64.2605 42.7738 64.2619 42.8131Z" fill="white"/>
<path d="M195.363 129.106C201.07 130.271 207.726 129.163 211.48 125.398C205.09 125.325 198.938 123.371 194.111 119.884C192.256 118.533 190.36 116.87 187.897 116.804C186.365 116.763 184.892 117.387 183.757 118.245C182.622 119.104 181.773 120.187 180.936 121.257L180.603 121.415C184.776 124.86 189.655 127.941 195.363 129.106Z" fill="#F0F0F0"/>
<path d="M211.397 125.323C206.852 126.767 201.877 126.981 197.178 125.936C196.161 125.726 195.191 125.384 194.302 124.923C193.454 124.45 192.774 123.796 192.332 123.03C191.902 122.323 191.561 121.558 190.932 120.949C190.605 120.642 190.203 120.396 189.754 120.227C189.304 120.058 188.817 119.97 188.324 119.969C187.095 119.94 185.926 120.28 184.798 120.645C183.545 121.051 182.251 121.49 180.879 121.396C180.712 121.384 180.701 121.6 180.867 121.611C183.254 121.775 185.27 120.424 187.586 120.21C188.666 120.11 189.789 120.281 190.577 120.946C191.266 121.528 191.618 122.317 192.046 123.036C192.464 123.789 193.097 124.445 193.89 124.946C194.747 125.444 195.7 125.817 196.708 126.048C198.966 126.6 201.315 126.852 203.667 126.796C206.352 126.745 209.007 126.311 211.517 125.514C211.672 125.464 211.551 125.274 211.397 125.323H211.397Z" fill="white"/>
<path d="M198.667 126.347C198.564 127.027 198.754 127.716 199.204 128.291C199.654 128.865 200.335 129.287 201.124 129.482C201.284 129.521 201.364 129.316 201.204 129.277C200.469 129.097 199.835 128.703 199.417 128.168C198.999 127.632 198.825 126.99 198.926 126.357C198.948 126.219 198.689 126.21 198.667 126.347V126.347Z" fill="white"/>
<path d="M192.493 123.413C193.814 122.544 195.48 122.122 197.158 122.23C197.325 122.241 197.336 122.026 197.17 122.015C195.423 121.904 193.691 122.347 192.318 123.253C192.187 123.34 192.363 123.499 192.493 123.413H192.493Z" fill="white"/>
<path d="M206.209 126.485C206.183 126.215 206.238 125.943 206.369 125.695C206.5 125.447 206.704 125.23 206.96 125.064C207.092 124.979 206.917 124.82 206.786 124.904C206.503 125.089 206.279 125.329 206.133 125.603C205.988 125.877 205.925 126.176 205.95 126.475C205.95 126.503 205.962 126.531 205.985 126.552C206.008 126.573 206.04 126.585 206.074 126.588C206.108 126.589 206.141 126.579 206.167 126.559C206.192 126.54 206.207 126.513 206.209 126.485Z" fill="white"/>
<path d="M207.785 109.117C207.701 109.168 207.617 109.22 207.53 109.27C206.394 109.953 205.192 110.558 203.938 111.079C203.841 111.121 203.743 111.161 203.646 111.201C200.607 112.429 197.322 113.177 193.955 113.406C192.616 113.496 191.27 113.501 189.929 113.421C188.078 113.311 186.081 113.069 184.346 113.463C184.164 113.502 183.985 113.551 183.811 113.609L180.399 121.064C180.401 121.084 180.402 121.104 180.404 121.124L180.251 121.416C180.32 121.425 180.392 121.432 180.461 121.44C180.5 121.445 180.541 121.448 180.581 121.453C180.608 121.456 180.635 121.458 180.659 121.462C180.668 121.463 180.677 121.464 180.683 121.464C180.707 121.468 180.73 121.469 180.752 121.472C181.152 121.513 181.553 121.552 181.955 121.589C181.957 121.59 181.957 121.59 181.96 121.589C185.019 121.893 188.111 121.893 191.171 121.59C191.262 121.58 191.355 121.571 191.448 121.558C192.813 121.401 194.16 121.152 195.476 120.812C196.196 120.624 196.904 120.406 197.597 120.159C199.387 119.517 201.045 118.644 202.509 117.573C205.428 115.437 207.495 112.547 207.767 109.361C207.774 109.279 207.78 109.199 207.785 109.117Z" fill="#F0F0F0"/>
<path d="M207.664 109.098C205.079 112.529 201.262 115.195 196.755 116.717C195.791 117.059 194.769 117.273 193.726 117.35C192.707 117.397 191.691 117.217 190.784 116.827C189.93 116.477 189.104 116.037 188.163 115.867C187.679 115.786 187.181 115.79 186.7 115.881C186.218 115.971 185.766 116.146 185.371 116.392C184.369 116.985 183.682 117.842 183.045 118.7C182.338 119.653 181.622 120.651 180.458 121.264C180.317 121.339 180.464 121.516 180.605 121.442C182.629 120.376 183.262 118.287 184.956 116.955C185.747 116.333 186.767 115.906 187.877 116.043C188.847 116.162 189.699 116.615 190.56 116.975C191.438 117.366 192.418 117.572 193.414 117.575C194.458 117.543 195.489 117.363 196.46 117.042C198.662 116.35 200.72 115.374 202.558 114.15C204.664 112.762 206.471 111.085 207.898 109.19C207.986 109.073 207.752 108.981 207.664 109.098H207.664Z" fill="white"/>
<path d="M198.241 116.298C198.65 116.894 199.3 117.348 200.075 117.581C200.849 117.814 201.698 117.81 202.469 117.57C202.625 117.521 202.541 117.317 202.385 117.366C201.667 117.591 200.876 117.594 200.156 117.376C199.435 117.158 198.832 116.733 198.454 116.176C198.372 116.056 198.159 116.178 198.241 116.298Z" fill="white"/>
<path d="M191.189 117.051C191.616 115.695 192.641 114.523 194.06 113.768C194.201 113.693 194.054 113.515 193.914 113.59C192.439 114.378 191.375 115.6 190.935 117.012C190.893 117.146 191.148 117.185 191.189 117.051Z" fill="white"/>
<path d="M204.362 112.627C204.146 112.424 203.994 112.18 203.919 111.916C203.845 111.652 203.85 111.377 203.935 111.115C203.978 110.981 203.724 110.942 203.68 111.076C203.588 111.365 203.583 111.669 203.664 111.961C203.746 112.252 203.912 112.523 204.148 112.749C204.168 112.772 204.198 112.787 204.232 112.793C204.265 112.798 204.3 112.792 204.328 112.777C204.356 112.761 204.376 112.736 204.382 112.708C204.388 112.68 204.381 112.651 204.362 112.627Z" fill="white"/>
<path d="M218.232 83.4223L209.529 95.6188L209.859 95.7641L206.912 100.417L206.299 100.147L204.362 102.859L204.843 103.089L201.686 107.643L201.139 107.38L172.742 147.18C171.997 148.221 170.786 148.974 169.376 149.273C167.965 149.572 166.47 149.393 165.218 148.775L112.426 122.651C111.175 122.031 110.271 121.023 109.912 119.848C109.553 118.674 109.768 117.428 110.511 116.385L156 52.6281C156.745 51.5865 157.956 50.8335 159.366 50.5344C160.777 50.2354 162.272 50.4146 163.524 51.0327L216.316 77.1563C217.566 77.7768 218.47 78.7849 218.829 79.9595C219.188 81.1342 218.973 82.3794 218.232 83.4223Z" fill="#3F3D56"/>
<path d="M167.099 146.314L114.122 120.099C113.736 119.907 113.458 119.597 113.347 119.235C113.236 118.872 113.303 118.489 113.531 118.167L159.323 53.9856C159.553 53.6646 159.926 53.4325 160.361 53.3404C160.795 53.2482 161.256 53.3034 161.642 53.4939L214.62 79.7092C215.005 79.9005 215.284 80.2112 215.395 80.5733C215.505 80.9354 215.439 81.3193 215.21 81.6408L169.418 145.822C169.189 146.143 168.816 146.375 168.381 146.467C167.946 146.56 167.485 146.504 167.099 146.314Z" fill="white"/>
<path d="M188.861 65.5871C189.119 65.5871 189.328 65.413 189.328 65.1982C189.328 64.9834 189.119 64.8093 188.861 64.8093C188.603 64.8093 188.394 64.9834 188.394 65.1982C188.394 65.413 188.603 65.5871 188.861 65.5871Z" fill="white"/>
<path d="M185.97 111.563L141.747 89.6795C141.609 89.6115 141.488 89.5213 141.391 89.4142C141.294 89.3071 141.224 89.1851 141.184 89.0552C141.144 88.9254 141.135 88.7902 141.158 88.6575C141.181 88.5248 141.235 88.3972 141.317 88.2819C141.399 88.1667 141.508 88.0661 141.637 87.9859C141.766 87.9058 141.913 87.8476 142.069 87.8148C142.225 87.782 142.387 87.7752 142.546 87.7947C142.706 87.8142 142.859 87.8598 142.997 87.9287L187.22 109.812C187.358 109.88 187.479 109.97 187.576 110.077C187.673 110.184 187.743 110.306 187.783 110.436C187.823 110.566 187.832 110.701 187.809 110.834C187.786 110.967 187.732 111.094 187.65 111.21C187.568 111.325 187.459 111.425 187.33 111.506C187.201 111.586 187.054 111.644 186.898 111.677C186.742 111.71 186.58 111.716 186.421 111.697C186.261 111.677 186.108 111.632 185.97 111.563H185.97Z" fill="#E6E6E6"/>
<path d="M168.313 108.172L153.766 100.974C153.628 100.906 153.508 100.815 153.412 100.708C153.315 100.601 153.245 100.479 153.206 100.35C153.166 100.22 153.158 100.085 153.181 99.9529C153.204 99.8205 153.258 99.6932 153.34 99.5782C153.422 99.4633 153.53 99.3629 153.659 99.2828C153.787 99.2027 153.934 99.1445 154.089 99.1115C154.245 99.0785 154.407 99.0714 154.566 99.0906C154.725 99.1097 154.878 99.1547 155.016 99.2231L169.562 106.421C169.7 106.489 169.82 106.58 169.916 106.687C170.013 106.794 170.083 106.916 170.122 107.045C170.162 107.175 170.17 107.31 170.147 107.442C170.124 107.574 170.07 107.702 169.988 107.817C169.906 107.932 169.798 108.032 169.669 108.112C169.541 108.192 169.394 108.25 169.239 108.283C169.083 108.316 168.921 108.324 168.762 108.304C168.603 108.285 168.451 108.24 168.313 108.172Z" fill="#E6E6E6"/>
<path d="M162.593 116.188L148.047 108.99C147.769 108.852 147.567 108.627 147.487 108.366C147.407 108.104 147.455 107.826 147.621 107.594C147.787 107.362 148.056 107.194 148.37 107.128C148.685 107.061 149.018 107.101 149.297 107.239L163.843 114.437C163.981 114.505 164.101 114.596 164.197 114.703C164.294 114.81 164.363 114.932 164.403 115.061C164.443 115.191 164.451 115.326 164.428 115.458C164.405 115.59 164.351 115.718 164.269 115.833C164.187 115.948 164.079 116.048 163.95 116.128C163.822 116.208 163.675 116.266 163.52 116.299C163.364 116.332 163.202 116.339 163.043 116.32C162.884 116.301 162.731 116.256 162.593 116.188Z" fill="#E6E6E6"/>
<path d="M159.664 120.293L145.118 113.095C144.98 113.027 144.859 112.937 144.762 112.83C144.666 112.723 144.595 112.601 144.556 112.471C144.516 112.341 144.507 112.206 144.53 112.074C144.553 111.941 144.607 111.814 144.689 111.699C144.771 111.583 144.88 111.483 145.009 111.403C145.137 111.323 145.284 111.265 145.44 111.232C145.596 111.199 145.758 111.192 145.917 111.211C146.076 111.231 146.229 111.276 146.367 111.345L160.913 118.543C161.052 118.611 161.173 118.701 161.27 118.808C161.367 118.915 161.437 119.037 161.477 119.167C161.517 119.297 161.526 119.432 161.503 119.565C161.48 119.697 161.426 119.825 161.344 119.94C161.262 120.056 161.153 120.156 161.024 120.236C160.895 120.317 160.748 120.375 160.592 120.407C160.436 120.44 160.274 120.447 160.115 120.428C159.955 120.408 159.802 120.362 159.664 120.293V120.293Z" fill="#E6E6E6"/>
<path d="M173.651 116.16L142.789 100.889C142.512 100.75 142.311 100.526 142.232 100.265C142.153 100.003 142.201 99.7268 142.367 99.4953C142.532 99.2637 142.801 99.0961 143.114 99.0291C143.427 98.9621 143.76 99.0013 144.038 99.1379L174.9 114.41C175.039 114.478 175.16 114.568 175.257 114.675C175.354 114.782 175.424 114.904 175.464 115.034C175.504 115.164 175.513 115.299 175.49 115.432C175.467 115.564 175.413 115.692 175.331 115.807C175.249 115.923 175.14 116.023 175.011 116.103C174.882 116.184 174.735 116.242 174.579 116.275C174.423 116.307 174.261 116.314 174.101 116.295C173.942 116.275 173.789 116.229 173.651 116.16Z" fill="#E6E6E6"/>
<path d="M167.769 135.678L162.487 133.064C162.014 132.829 161.672 132.448 161.536 132.003C161.4 131.558 161.482 131.087 161.764 130.692C162.045 130.298 162.503 130.012 163.037 129.899C163.571 129.785 164.137 129.853 164.611 130.087L169.893 132.701C170.367 132.935 170.71 133.317 170.846 133.762C170.982 134.207 170.9 134.679 170.618 135.074C170.337 135.469 169.878 135.754 169.344 135.867C168.809 135.981 168.243 135.912 167.769 135.678Z" fill="#00FFD1" fill-opacity="0.7"/>
<path d="M177.623 93.243C183.602 93.243 188.449 89.2064 188.449 84.2271C188.449 79.2477 183.602 75.2112 177.623 75.2112C171.644 75.2112 166.797 79.2477 166.797 84.2271C166.797 89.2064 171.644 93.243 177.623 93.243Z" fill="#00FFD1" fill-opacity="0.7"/>
<path d="M0.127502 120.864H146.633V50.2278C146.632 49.6986 146.379 49.1912 145.93 48.817C145.48 48.4427 144.871 48.2322 144.236 48.2316H2.52454C1.88904 48.2322 1.27977 48.4427 0.830392 48.817C0.381017 49.1912 0.128236 49.6986 0.127502 50.2278V120.864Z" fill="#CACACA"/>
<path d="M142.106 50.9926H4.65399V115.98H142.106V50.9926Z" fill="white"/>
<path d="M1.97085e-10 118.953V127.67C-4.73876e-06 128.031 0.0854543 128.389 0.251498 128.723C0.417542 129.056 0.660919 129.36 0.967732 129.615C1.27454 129.871 1.63879 130.074 2.03966 130.212C2.44053 130.35 2.87019 130.421 3.30409 130.421H57.378V147.624H56.6596C56.6033 147.624 56.5474 147.633 56.4954 147.651C56.4433 147.669 56.396 147.695 56.3561 147.728C56.3163 147.762 56.2846 147.801 56.2631 147.844C56.2415 147.888 56.2304 147.934 56.2304 147.981V149.178C56.2304 149.225 56.2415 149.271 56.2631 149.315C56.2846 149.358 56.3163 149.397 56.3561 149.43C56.396 149.464 56.4433 149.49 56.4954 149.508C56.5474 149.526 56.6033 149.535 56.6596 149.535H90.228C90.2843 149.535 90.3401 149.526 90.3922 149.508C90.4443 149.49 90.4916 149.464 90.5315 149.43C90.5713 149.397 90.603 149.358 90.6245 149.315C90.6461 149.271 90.6572 149.225 90.6572 149.178V147.981C90.6572 147.934 90.6461 147.888 90.6245 147.844C90.603 147.801 90.5713 147.762 90.5315 147.728C90.4916 147.695 90.4443 147.669 90.3922 147.651C90.3401 147.633 90.2843 147.624 90.228 147.624H89.5096V130.421H143.583C144.017 130.421 144.447 130.35 144.848 130.212C145.249 130.074 145.613 129.871 145.92 129.615C146.227 129.36 146.47 129.057 146.636 128.723C146.802 128.389 146.888 128.031 146.888 127.67V118.953L1.97085e-10 118.953Z" fill="#3F3D56"/>
<path d="M122.217 72.7268H57.1246C56.7143 72.7268 56.3207 72.591 56.0306 72.3494C55.7404 72.1077 55.5774 71.78 55.5774 71.4382C55.5774 71.0965 55.7404 70.7688 56.0306 70.5271C56.3207 70.2855 56.7143 70.1497 57.1246 70.1497H122.217C122.627 70.1497 123.021 70.2855 123.311 70.5271C123.601 70.7688 123.764 71.0965 123.764 71.4382C123.764 71.78 123.601 72.1077 123.311 72.3494C123.021 72.591 122.627 72.7268 122.217 72.7268Z" fill="#E6E6E6"/>
<path d="M100.376 78.5434H78.9653C78.5549 78.5434 78.1614 78.4076 77.8712 78.1659C77.581 77.9243 77.418 77.5965 77.418 77.2548C77.418 76.913 77.581 76.5853 77.8712 76.3436C78.1614 76.1019 78.5549 75.9662 78.9653 75.9662H100.376C100.786 75.9662 101.18 76.1019 101.47 76.3436C101.76 76.5853 101.923 76.913 101.923 77.2548C101.923 77.5965 101.76 77.9243 101.47 78.1659C101.18 78.4076 100.786 78.5434 100.376 78.5434Z" fill="#E6E6E6"/>
<path d="M100.376 90.342H78.9653C78.5549 90.342 78.1614 90.2062 77.8712 89.9646C77.581 89.7229 77.418 89.3952 77.418 89.0534C77.418 88.7117 77.581 88.3839 77.8712 88.1423C78.1614 87.9006 78.5549 87.7648 78.9653 87.7648H100.376C100.786 87.7648 101.18 87.9006 101.47 88.1423C101.76 88.3839 101.923 88.7117 101.923 89.0534C101.923 89.3952 101.76 89.7229 101.47 89.9646C101.18 90.2062 100.786 90.342 100.376 90.342Z" fill="#E6E6E6"/>
<path d="M100.376 96.3852H78.9653C78.7621 96.3852 78.5609 96.3518 78.3732 96.2871C78.1855 96.2223 78.0149 96.1274 77.8713 96.0078C77.7276 95.8881 77.6136 95.7461 77.5359 95.5897C77.4581 95.4334 77.4181 95.2658 77.4181 95.0966C77.4181 94.9274 77.4581 94.7599 77.5359 94.6035C77.6136 94.4472 77.7276 94.3052 77.8713 94.1855C78.0149 94.0659 78.1855 93.9709 78.3732 93.9062C78.5609 93.8414 78.7621 93.8081 78.9653 93.8081H100.376C100.579 93.8081 100.78 93.8414 100.968 93.9062C101.156 93.9709 101.326 94.0659 101.47 94.1855C101.614 94.3052 101.728 94.4472 101.805 94.6035C101.883 94.7599 101.923 94.9274 101.923 95.0966C101.923 95.2658 101.883 95.4334 101.805 95.5897C101.728 95.7461 101.614 95.8881 101.47 96.0078C101.326 96.1274 101.156 96.2223 100.968 96.2871C100.78 96.3518 100.579 96.3852 100.376 96.3852Z" fill="#E6E6E6"/>
<path d="M112.384 84.3599H66.9576C66.5473 84.3599 66.1537 84.2241 65.8636 83.9825C65.5734 83.7408 65.4104 83.4131 65.4104 83.0714C65.4104 82.7296 65.5734 82.4019 65.8636 82.1602C66.1537 81.9186 66.5473 81.7828 66.9576 81.7828H112.384C112.794 81.7828 113.188 81.9186 113.478 82.1602C113.768 82.4019 113.931 82.7296 113.931 83.0714C113.931 83.4131 113.768 83.7408 113.478 83.9825C113.188 84.2241 112.794 84.3599 112.384 84.3599Z" fill="#E6E6E6"/>
<path d="M121.133 108.758H113.359C112.661 108.758 111.992 108.527 111.498 108.116C111.005 107.705 110.728 107.148 110.728 106.567C110.728 105.986 111.005 105.429 111.498 105.018C111.992 104.607 112.661 104.376 113.359 104.376H121.133C121.831 104.376 122.5 104.607 122.993 105.018C123.487 105.429 123.764 105.986 123.764 106.567C123.764 107.148 123.487 107.705 122.993 108.116C122.5 108.527 121.831 108.758 121.133 108.758Z" fill="#00FFD1" fill-opacity="0.7"/>
<path d="M36.6561 92.8551C44.1299 92.8551 50.1885 87.8094 50.1885 81.5852C50.1885 75.3611 44.1299 70.3154 36.6561 70.3154C29.1824 70.3154 23.1237 75.3611 23.1237 81.5852C23.1237 87.8094 29.1824 92.8551 36.6561 92.8551Z" fill="#00FFD1" fill-opacity="0.7"/>
<path d="M195.012 150H0.358065C0.26328 150 0.172474 149.968 0.105548 149.912C0.0386223 149.856 0.0010376 149.781 0.0010376 149.702C0.0010376 149.623 0.0386223 149.547 0.105548 149.491C0.172474 149.435 0.26328 149.404 0.358065 149.404H195.012C195.107 149.404 195.198 149.435 195.265 149.491C195.332 149.547 195.369 149.623 195.369 149.702C195.369 149.781 195.332 149.856 195.265 149.912C195.198 149.968 195.107 150 195.012 150Z" fill="#CACACA"/>
<path d="M73.3163 49.6121C73.598 49.6121 73.8263 49.4219 73.8263 49.1873C73.8263 48.9527 73.598 48.7626 73.3163 48.7626C73.0346 48.7626 72.8063 48.9527 72.8063 49.1873C72.8063 49.4219 73.0346 49.6121 73.3163 49.6121Z" fill="white"/>
</g>
<defs>
<clipPath id="clip0_17_309">
<rect width="219" height="150" fill="white"/>
</clipPath>
</defs>
</svg>
